<svg xmlns="http://www.w3.org/2000/svg" version="1.1" xmlns:xlink="http://www.w3.org/1999/xlink" xmlns:svgjs="http://svgjs.dev/svgjs" viewBox="0 0 800 800"><defs><linearGradient x1="50%" y1="0%" x2="50%" y2="100%" id="ssscribble-grad"><stop stop-color="#1a2332" stop-opacity="1" offset="0%"></stop><stop stop-color="#1a2332" stop-opacity="1" offset="100%"></stop></linearGradient></defs><g fill="none" stroke-width="1.5" stroke="url(#ssscribble-grad)" stroke-linecap="round"><path d="M1089.69 233.97C1035.92 266.83 800.28 308.96 642.9 360.75 717.23 414.47 928.59 480.72 1059.17 559.33 993.64 639.28 787.85 727.26 606.31 814.7 559.52 886.79 654.09 938.89 796.37 957.1 907.17 939.4 917.08 882.41 839.74 795.19 703.71 707.87 562.58 637.25 449.23 611.84 359 650.32 304.01 747.78 269.01 881.67 244.82 1010.45 220.55 1091.95 187.69 1092.39 154.83 1012.28 114.94 881.43 77.15 748.44 50.18 654.62 45.39 625.37 78.67 659.41 135.08 743.93 222.09 843.04 307.47 925.82 334.16 979.23 277.08 984.99 123.21 947.87 -62.13 876.34 -195.66 784.58 -183.09 688.78 -35.76 590.64 140.55 504.74 181.99 434.21 27.32 371.45 -202.73 321.43 -289.74 280.4 -145.05 242.45 83.92 207.98 137.69 175.12 -54.78 142.26 -265.23 112.56 -264.39 88.54 43.42 62.71 -84.38 93.11 -220.65 156.49 -106 201.65 89.67 246.23 248.67 274.7 310.13 268.76 266.98 224.05 175.09 136.43 69.26 19.44 6.27 -109.13 -5.77 -217.75 19.66 -275.89 73.61 -265.36 132.85 -184.23 200.25 -63.93 254.15 60.25 287.02 140.38 319.88 139.96 330.15 65.14 324.72 -50.95 327.45 -172.16 333.27 -250.93 364.77 -265.34 433.75 -215.86 550.85 -115.77 707.32 5.76 849.86 127.19 940.22 223.16 921.86 283.93 805.94 308.79 649.21 303.89 568.75 282.45 649.9 245.65 857.97 211.79 1042.98 188.78 954.08 163.88 788.6 190.09 1089.66 233.96Q1089.69 233.97 1089.69 233.97" opacity="0.38"></path><path d="M1055.69 359.62C1014.43 390.13 801.72 433.01 625.2 486.94 637.01 540.89 810.34 605.17 981.64 676.17 1017.75 742.55 888.71 807.68 694.37 862.21 544.91 897.56 516.97 908.31 591.48 887.16 721.3 841.45 825.51 770.38 865.76 687.28 842.03 619.52 764.95 578.98 668.24 584.89 557.4 645 462.24 750.16 390.23 877.43 322.29 991.93 274.1 1060.84 243.59 1058.39 213.07 986.18 201.68 867.46 212.08 741.13 226.55 641.22 266.19 592.31 324.15 599.2 367.99 656.79 394.81 740.3 371.52 824.23 284.23 897 136.22 936.26 -33.59 938.82 -148.09 909.54 -156.33 852.82 -38.64 781.2 123.92 697.63 225.6 615.26 167.12 541.03 -26.54 468.18 -217.24 406.66 -240.83 356.63 -76.09 308.23 130.43 268.87 171.69 238.35 -106.22 197.73 12.09 173.95 219.72 196.93 144.1 218.27 -27.66 250.39 -158.93 286.94 -170.47 311.53 -53.86 324.45 115.9 313.74 272.67 271.2 354.38 195.76 360.51 91.24 305.88 -24.46 232.11 -135.34 171.7 -215.31 119.55 -244.57 99.43 -213.05 104.79 -124.92 118.62 -10.37 144.18 102.16 174.69 174.38 205.2 176.85 239.22 114.14 282.93 11.42 335.11 -104.07 410.73 -191.87 515.75 -229.63 629.04 -213.18 753.06 -145.28 854.74 -45.76 895.66 69.1 857.78 176.35 741.01 262.07 611.23 323.22 530.77 356.28 574.06 367.97 836.65 353.03 857.71 309.59 614.5 308.79 667.91 312.41 881.34 329.1 1055.66 359.61Q1055.69 359.62 1055.69 359.62" opacity="0.45"></path><path d="M1021.69 501.32C991.79 529.48 804.08 567.77 619.03 613.95 575.23 658.74 693.32 708.32 868.45 757.67 981.83 799.5 953.23 832.85 812.3 850.28 631.82 850.82 503.26 828.46 465.14 781.92 514.49 724.16 609.38 655.36 700.93 589.47 774.25 548.2 799.87 538.62 785.49 571.73 742.69 647.38 684.53 754.76 628.13 872.44 566.61 972.24 519.12 1029.29 490.95 1024.39 462.78 959.8 455.28 853.27 463.67 735.34 466.96 633.24 473.87 569.31 467.86 551.89 433.43 581.15 361.43 641.96 244.69 715.32 109.73 792.48 -25.58 851.36 -111.85 884.01 -110.65 893.17 -15.48 874.89 135.66 836.57 247.27 782.39 250.6 720.38 116.58 658.37 -79.19 592.6 -213.31 533.26 -180.37 483.47 -6.2 433.66 175.79 394.03 205.69 365.86 -50.39 330.01 -26.05 319.72 227.18 340.73 245.29 353.93 133.78 369.56 -17.48 380.33 -126.44 375.25 -127.92 353.1 -35.3 307.02 114.8 237.47 260.78 145.19 364.66 38.7 420.29 -63.97 427.15 -150.05 408.66 -199.96 369.17 -203.2 335.74 -155.32 320.04 -64.1 304.27 42.95 310 143.77 338.16 208.38 366.32 213.3 415.58 161.97 484.47 73.05 553.29 -33.76 637.96 -125.12 726.27 -180.13 793.58 -192.6 833.11 -157.77 820.91 -87.17 760.46 8.03 654.92 110.24 541.72 204.91 485.99 288.37 520.85 351.17 659.12 394.04 839.72 420.02 976.5 433.06 979.07 440.04 754.52 440.33 762.69 464.78 1021.66 501.31Q1021.69 501.32 1021.69 501.32" opacity="0.07"></path><path d="M987.69 602.73C967.96 628.55 806.5 658.55 622.92 690.61 534.67 720.78 589.96 749.27 736.3 771.69 887.34 786.93 949.36 790.03 899.59 776.95 764.07 753.13 606.17 712.4 483.69 657.76 421.03 603.81 425.76 550.72 472.51 510.58 548.09 498.24 616.84 516.95 662.94 571.23 696.66 655.95 704.34 760.53 693.78 866.25 676.79 951.27 652.79 997.31 626.97 990.39 601.15 933.12 574.74 838.72 543.03 730.64 504.9 629.97 450.25 555.97 371.79 518.48 280.94 520.7 169.67 555.21 54.29 609.32 -32.24 677.47 -74.04 740.82 -45.21 789.66 43.41 825.84 170.7 839.93 279.34 834.33 302.23 814.33 217.05 781.4 47.08 741.92 -118.18 696.2 -188.16 650.74 -109.87 609.82 63.73 567.72 219.96 532.76 239.69 506.94 7.11 473.38 -62.27 450.53 193.06 450.75 289.37 445.49 265.62 435.9 156.78 416.12 17.66 381.93 -75.51 330.77 -91.29 260.76 -32.02 178.09 78.23 84.13 200.54 -10.9 320.82 -91.91 410.6 -149.58 468.47 -170.73 503.76 -152.18 520.74 -92.88 532.6 -2.19 538.33 95.92 551.49 185.1 577.31 242.38 603.13 249.32 640.38 208.52 683.34 133.47 720.17 37.71 750.18 -52.17 759.64 -117.97 746.52 -153.33 699.27 -148.9 618.79 -109.67 536.27 -42.65 463.07 41.04 437.62 128.84 487.22 217.31 611 295.12 777 358.73 912.74 411.6 959.68 451.02 882.32 480.53 726.98 502.85 579.53 521.33 543.84 539.86 656.01 556.48 848.86 576.9 987.66 602.72Q987.69 602.73 987.69 602.73" opacity="0.44"></path><path d="M953.69 623.53C942.86 647 808.01 667.92 634.78 685.02 516.09 700.54 510.78 709.36 605.85 708.98 751.62 703.96 868.35 686.92 908.33 657.23 863.06 623.98 752.14 581.52 619.54 534.96 492.67 497.23 405.63 468.31 363.34 457.09 360.72 471.81 384.63 513.28 416.24 581.49 457.99 668.88 488.4 766.33 501.61 858.39 514 928.92 508.61 964.9 485.14 956.39 461.67 906.14 421.23 823.65 364.56 726.53 307.1 630.53 233.98 551.44 151.55 499.1 79.26 477.91 16.7 486.02 -16.84 516.14 -10.73 565.38 42.6 619.71 138.7 669.97 240.54 717.76 323.63 751.51 344.47 769.85 280.04 778.69 142.27 773.81 -20.71 758.85 -132.98 737.93 -141.03 712.03 -31.39 684.81 132.77 656 262.86 628.97 273.69 605.5 152 582.02 -20.32 563.22 -138.98 547.76 -143.42 530.72 -31.92 513.92 130.76 494.17 272.65 468.46 332.83 434.68 303.33 389.67 204.06 335.15 88.05 267.71 -0.12 189.16 -44.4 108.14 -29.73 25.97 27.97 -47.7 117.51 -102.26 214.43 -131.43 301.86 -127.46 386.3 -92.34 451.76 -26.61 499.65 60.31 543.45 148.38 575.92 226.11 599.4 276.38 622.87 284.9 636.24 253.69 636.71 192.23 633.09 109.23 610.34 25.13 566.58 -45.05 519.83 -96.07 461.56 -116.49 408.19 -106.77 386.64 -71.11 405.65 -14.37 480.68 54.12 599.61 131.44 743.46 207.61 867.18 277.03 921.14 342.9 882.03 398.59 757.37 444.29 611.89 485.34 513.72 519.23 527.17 547.97 654.86 575.14 831.94 600.05 953.66 623.52Q953.69 623.53 953.69 623.53" opacity="0.72"></path><path d="M919.69 555.45C916.43 576.58 807.73 590.4 652.1 596.69 518.1 602.19 462.7 598.86 497.38 586.32 603.19 572.35 727.82 549.31 823.22 518.95 866.6 490.83 842.94 460.58 768.92 433.49 660.79 418.81 548.45 416.59 452.13 432.22 372.72 468.6 321.46 525.37 292.34 599.93 279.3 684.18 275.05 771.03 270.37 848.44 269.46 905.11 260.2 932.04 239.08 922.39 217.95 878.82 185.96 807.92 147.03 722.53 111.87 633.96 77.69 554.49 54.13 493 46.63 453.82 63.11 438.57 109.96 444.06 173.72 469.18 255.73 505.01 336.17 544.31 382.51 588.5 381.12 626.76 315.74 655.69 198.34 681 54.77 695.14 -66.51 698.91 -116.68 698.86 -73.3 690.93 52.54 677.13 200.01 662.06 304.43 643.47 307.69 622.34 202.48 601.22 48.16 578.57 -77.57 553.8 -122.68 527.76 -66.42 497.26 59.44 460.71 207.89 420.33 322.49 371.4 373.07 313.54 354.04 252.05 283.76 183.46 194.67 111.58 103.11 44.59 40.52 -16.28 14.23 -63.4 18.44 -90.89 51.34 -94.59 99.05 -70.91 159.65 -24.91 218.7 42.52 268.17 122.93 319.03 200.17 356.25 266.8 377.37 310.38 398.51 320.04 402.54 297.4 391.53 248.9 381.9 179.63 361.28 104.8 337.29 36.04 326.18 -23.03 328.06 -60.87 356.39 -75.25 415.23 -68.89 508.13 -41.62 627.38 0.74 744.16 55.51 839.5 116.09 880.56 176.77 851.99 239.69 756.35 297.52 623.39 348.1 512.99 397.25 468.73 439.01 521.95 473.35 655.83 506.89 814.42 534.32 919.66 555.44Q919.69 555.45 919.69 555.45" opacity="0.77"></path><path d="M885.69 425.56C888.62 444.34 804.78 454.56 672.06 456.77 492.69 456.13 519.89 421.44 667.87 395.09 785.81 377.12 754.49 388.62 644.76 435.54 556.53 485.85 475.51 549.73 408.32 623.44 346.6 699.7 299.64 773.51 264.95 836.01 233.21 879.75 208.78 898.74 190 888.39 171.22 851.17 158.99 791.39 155.31 718.14 154.59 639.18 167.39 563.55 196.57 498.61 231.22 447.89 281.31 414.73 340.6 398.68 389.45 399.43 426.37 412.55 434.66 433.23 402.68 462.45 328.11 492.04 216.78 518.16 95.12 545.43 -13.46 565.76 -74.53 577.97 -66.95 588.96 11.61 591.92 139.11 587.12 264.58 581.7 344.62 569.56 341.69 550.78 252.24 532.01 117.87 507.49 -6.3 477.49 -79.94 446.88 -74.87 409.77 0.14 366.23 120.91 321.49 248.21 270.24 348.8 214.03 406.87 158.96 414.19 102.41 382.27 48.58 319.37 3.28 249.19 -32.1 187.88 -52.41 133.32 -55.91 100.72 -39.6 88.58 -2.65 87.96 48.51 100.49 113.45 119.49 185.16 142.01 251.17 164.25 307.14 183.03 344.38 201.81 354.74 216.24 339.57 229.13 303.07 245.54 247.83 267.16 184.7 300.32 122.2 345 62.25 408.51 15.21 492 -15.54 582.26 -32.23 679.4 -31.34 766.92 -15.65 823.47 12.02 838.43 49.05 799.92 90.93 718.9 138.14 608.45 185.22 501.43 229.11 440.15 274.09 445.74 313.9 526.6 347.12 658 380.33 796.19 406.78 885.66 425.55Q885.69 425.56 885.69 425.56" opacity="0.23"></path><path d="M851.69 285.51C797.92 318.37 564.75 326.01 401.85 317.45 432.27 317.91 590.74 321.76 722.46 349.7 773 413.23 718.17 517.28 627.49 648.65 513.88 771.76 430.85 853.95 397.99 854.39 365.12 774.27 385.54 643.42 442.21 513.66 475.94 413.67 479.48 363.31 385.88 354.32 114.42 396.71 211.99 453.53 375.69 419.26 183.2 386.41 -20.62 326.62 -28.64 247.28 149.45 171.04 355.07 86.68 456.6 17.75 439.72 -16.33 359.52 -0.84 295.53 75.05 233.55 180.71 221.41 298.25 254.27 378.38 287.12 377.96 361.86 309.09 480.78 210.07 601.71 102.78 733.22 33.58 793.2 13.11 734.75 28.24 564 75.67 409.97 132.17 442.03 197.67 659.14 252.64 851.66 285.5Q851.69 285.51 851.69 285.51" opacity="0.15"></path><path d="M817.69 190.97C787.8 219.14 602.46 237.66 421.5 253.49 351.64 277.86 413.21 314.85 525.56 374.6 645.23 454.72 702.84 559.26 704 672.04 676.99 767.31 636.6 825.29 608.43 820.39 580.26 755.8 566.99 649.2 545.19 535.27 495.22 432.31 393.65 359.43 237.06 318.69 87.79 305.03 -3.64 306.48 45.56 307.52 205.88 315.06 379.8 308.25 409.69 280.09 253.35 251.92 60.76 205.06 -14.56 148.71 61.33 98.85 230.33 53.45 385.01 30.19 489.07 34.01 519.24 77.01 514.98 159.31 486.35 252.6 475.72 347.78 503.89 412.38 532.04 417.3 596.33 370.74 673.78 296.12 726.85 203.98 740.66 129.3 673.54 86.1 555.79 63.26 416.65 70.23 361.36 94.67 457.31 127.66 661.29 162.8 817.66 190.96Q817.69 190.97 817.69 190.97" opacity="0.09"></path><path d="M783.69 179.55C772.87 203.02 639.76 231.12 475.23 266.19 349.11 306.52 310.47 361.97 340.78 433.81 420.4 512.88 497.45 603.18 542.91 690.21 581.67 757.82 587.19 794.9 563.72 786.39 540.25 736.14 490.01 653.47 410.57 560.14 324.43 466.31 210.75 386.95 100.37 328.68 39.29 286.44 53.04 259.7 161.95 240.81 309.28 227.86 432.87 212.05 443.69 188.58 322 165.11 156.12 136.19 45.88 108.47 28.86 86.68 109.07 76.79 229.54 88.27 363.81 115.77 465.95 170.22 528.78 246.84 574.59 322.96 602.84 396.11 626.31 446.38 649.79 454.9 666.26 427.34 661.14 376.94 638.99 307.11 573.5 241.71 469.99 193.4 380.28 152.32 324.94 133.5 359.14 133.84 486.56 139.45 661.95 156.07 783.66 179.54Q783.69 179.55 783.69 179.55" opacity="0.53"></path><path d="M749.69 255.78C752.62 274.55 669.66 305.39 545.58 346.75 415.29 389.89 320.34 445.67 272.42 510.49 264.18 574.54 281.61 641.27 300.65 700.09 328.23 742.57 337.36 762.74 318.59 752.39 299.81 715.16 254.89 655.09 194.77 584.78 143.19 508.91 96.46 437.41 80.08 377.41 103.39 323.77 178.43 281.88 294.96 250.58 405.27 222.7 480.62 199.92 477.69 181.14 388.23 162.36 259.23 149.36 146.73 144.71 73.46 143.46 65.53 156.05 106.68 185.07 182.8 220.46 267.08 272.05 336.35 334.16 406.22 390.7 452.91 443.16 471.69 480.39 490.47 490.74 479.56 478.18 442.23 449.46 405.5 404.4 350.53 357.59 299.02 318.15 282.48 277.94 310.31 251.47 397.33 240.86 523.58 232.05 660.19 236.99 749.66 255.77Q749.69 255.78 749.69 255.78" opacity="0.14"></path><path d="M715.69 389.35C685.8 417.51 505.17 491.73 349.21 584.28 241.38 663.36 201.27 723.29 173.11 718.39 144.94 653.79 134.05 547.03 204.96 450.15 324.01 355.91 481.8 288.88 511.69 260.72 355.33 232.55 176.79 248.58 111.71 305.9 131.29 365.87 201.12 449.79 229.29 514.39 257.46 519.29 238.62 482.19 255.96 440.02 357.95 384.39 559.33 361.18 715.69 389.35Q715.69 389.35 715.69 389.35" opacity="0.38"></path><path d="M681.69 527.15C599.9 564.7 342.92 676.93 305.37 684.39 267.81 587.67 463.9 433.22 545.69 395.67 316.47 358.11 158.3 451.67 195.86 548.39 233.41 540.93 452.47 489.59 681.69 527.15Q681.69 527.15 681.69 527.15" opacity="0.72"></path></g></svg>